<svg width="42" height="61" viewBox="0 0 42 61" fill="none" xmlns="http://www.w3.org/2000/svg">
<g id="lightbulb-regular 1" clip-path="url(#clip0_12_183)">
<path id="Vector" d="M21 9.53125C14.6833 9.53125 9.54545 14.6614 9.54545 20.9688C9.54545 22.022 10.3998 22.875 11.4545 22.875C12.5093 22.875 13.3636 22.022 13.3636 20.9688C13.3636 16.7631 16.7905 13.3438 21 13.3438C22.0548 13.3438 22.9091 12.4907 22.9091 11.4375C22.9091 10.3843 22.0548 9.53125 21 9.53125ZM11.4617 54.7058C11.4617 55.0811 11.5727 55.4469 11.7815 55.759L14.706 60.1481C15.0603 60.6795 15.6569 60.9988 16.2953 60.9988H25.7035C26.3431 60.9988 26.9397 60.6795 27.2928 60.1481L30.2173 55.759C30.4249 55.4469 30.5359 55.0799 30.5371 54.7058L30.5431 49.5613H11.4569L11.4617 54.7058ZM21 0C8.79614 0 0 9.8851 0 20.9688C0 26.255 1.96278 31.0778 5.1975 34.7629C7.18295 37.0253 10.2972 41.7683 11.4522 45.7429V45.75H17.1794V45.7357C17.1782 45.1674 17.0935 44.6027 16.9229 44.0594C16.2559 41.9375 14.2001 36.3427 9.50489 30.9932C7.05409 28.2018 5.74398 24.6609 5.73324 20.9688C5.70937 12.1952 12.853 5.71875 21 5.71875C29.4215 5.71875 36.2727 12.5598 36.2727 20.9688C36.2727 24.6585 34.9316 28.2185 32.4963 30.9932C27.8298 36.3081 25.7644 41.891 25.0866 44.0344C24.9117 44.5854 24.8224 45.16 24.8218 45.7381V45.75H30.549V45.744C31.704 41.7683 34.8182 37.0253 36.8037 34.764C40.0372 31.0778 42 26.255 42 20.9688C42 9.38828 32.5977 0 21 0Z" fill="#E5E5E5"/>
</g>
<defs>
<clipPath id="clip0_12_183">
<rect width="42" height="61" fill="white"/>
</clipPath>
</defs>
</svg>
