<svg width="61" height="61" viewBox="0 0 61 61" fill="none" xmlns="http://www.w3.org/2000/svg">
<g id="tools-solid 1" clip-path="url(#clip0_12_168)">
<path id="Vector" d="M59.7018 47.1439L45.7505 33.1926C42.9983 30.4404 38.888 29.9043 35.5759 31.5365L22.8755 18.8361V11.4375L7.62546 0L0.000463777 7.625L11.438 22.875H18.8366L31.537 35.5754C29.9167 38.8875 30.4409 42.9979 33.193 45.75L47.1444 59.7014C48.8839 61.4408 51.6956 61.4408 53.4231 59.7014L59.7018 53.4227C61.4294 51.6832 61.4294 48.8715 59.7018 47.1439V47.1439ZM39.5194 26.8066C42.8911 26.8066 46.0602 28.1172 48.443 30.5L50.7544 32.8113C52.6368 31.9893 54.4239 30.8455 55.9727 29.2967C60.3928 24.8766 61.894 18.6574 60.4882 13.0102C60.2261 11.9379 58.8798 11.5686 58.0934 12.3549L49.2294 21.2189L41.1397 19.8727L39.7934 11.783L48.6575 2.91895C49.4438 2.13262 49.0626 0.786328 47.9784 0.512305C42.3311 -0.881641 36.112 0.619531 31.7038 5.02773C28.3083 8.42324 26.7118 12.9029 26.7952 17.3707L36.5766 27.1521C37.5417 26.9258 38.5425 26.8066 39.5194 26.8066ZM27.1407 36.5762L20.3854 29.8209L2.22839 47.9898C-0.750122 50.9684 -0.750122 55.7936 2.22839 58.7721C5.20691 61.7506 10.0321 61.7506 13.0106 58.7721L27.7364 44.0463C26.8309 41.6754 26.5569 39.09 27.1407 36.5762V36.5762ZM7.62546 56.2344C6.05281 56.2344 4.76609 54.9477 4.76609 53.375C4.76609 51.7904 6.04089 50.5156 7.62546 50.5156C9.21004 50.5156 10.4848 51.7904 10.4848 53.375C10.4848 54.9477 9.21004 56.2344 7.62546 56.2344Z" fill="#E5E5E5"/>
</g>
<defs>
<clipPath id="clip0_12_168">
<rect width="61" height="61" fill="white"/>
</clipPath>
</defs>
</svg>
