<svg width="49" height="61" viewBox="0 0 49 61" fill="none" xmlns="http://www.w3.org/2000/svg">
<g id="utensils-solid 1" clip-path="url(#clip0_12_204)">
<path id="Vector" d="M24.4882 1.81062C24.5825 2.37058 26.3846 13.0694 26.3846 17.1559C26.3846 23.387 23.1101 27.8309 18.269 29.618L19.7885 57.9854C19.8709 59.6176 18.587 60.9997 16.9615 60.9997H9.42308C7.80938 60.9997 6.5137 59.6296 6.59615 57.9854L8.11563 29.618C3.26274 27.8309 0 23.3751 0 17.1559C0 13.0575 1.80216 2.37058 1.89639 1.81062C2.27332 -0.607935 7.23221 -0.643678 7.53846 1.94167V18.7643C7.69159 19.1694 9.31707 19.1456 9.42308 18.7643C9.58798 15.7501 10.3536 2.17996 10.3654 1.87019C10.7541 -0.607935 15.6305 -0.607935 16.0075 1.87019C16.031 2.19187 16.7849 15.7501 16.9498 18.7643C17.0558 19.1456 18.693 19.1694 18.8344 18.7643V1.94167C19.1406 -0.631763 24.1113 -0.607935 24.4882 1.81062V1.81062ZM38.5286 35.8491L36.7618 57.902C36.6204 59.57 37.9279 60.9997 39.5769 60.9997H46.1731C47.7397 60.9997 49 59.7249 49 58.1403V2.85906C49 1.2864 47.7397 -0.000317999 46.1731 -0.000317999C36.4555 -0.000317999 20.0947 21.2663 38.5286 35.8491Z" fill="#E5E5E5"/>
</g>
<defs>
<clipPath id="clip0_12_204">
<rect width="49" height="61" fill="white"/>
</clipPath>
</defs>
</svg>
